<?xml version="1.0" encoding="UTF-8" standalone="no"?>
<!-- Created with Inkscape (http://www.inkscape.org/) -->

<svg
   width="40mm"
   height="90mm"
   viewBox="0 0 40 90"
   version="1.1"
   id="svg1"
   inkscape:export-filename="bitmap.svg"
   inkscape:export-xdpi="96"
   inkscape:export-ydpi="96"
   xml:space="preserve"
   inkscape:version="1.4 (e7c3feb100, 2024-10-09)"
   sodipodi:docname="JSTBrandingPrototype.svg"
   xmlns:inkscape="http://www.inkscape.org/namespaces/inkscape"
   xmlns:sodipodi="http://sodipodi.sourceforge.net/DTD/sodipodi-0.dtd"
   xmlns:xlink="http://www.w3.org/1999/xlink"
   xmlns="http://www.w3.org/2000/svg"
   xmlns:svg="http://www.w3.org/2000/svg"><sodipodi:namedview
     id="namedview1"
     pagecolor="#ffffff"
     bordercolor="#000000"
     borderopacity="0.25"
     inkscape:showpageshadow="2"
     inkscape:pageopacity="0.0"
     inkscape:pagecheckerboard="0"
     inkscape:deskcolor="#d1d1d1"
     inkscape:document-units="mm"
     inkscape:zoom="1.3487514"
     inkscape:cx="19.277088"
     inkscape:cy="207.97013"
     inkscape:window-width="1920"
     inkscape:window-height="1008"
     inkscape:window-x="0"
     inkscape:window-y="0"
     inkscape:window-maximized="1"
     inkscape:current-layer="layer2" /><defs
     id="defs1"><rect
       x="16.311382"
       y="312.88197"
       width="118.62824"
       height="15.940669"
       id="rect11" /><rect
       x="7.8640153"
       y="313.51208"
       width="105.90207"
       height="16.776566"
       id="rect10" /><rect
       x="5.7669446"
       y="274.192"
       width="19.397905"
       height="40.89288"
       id="rect9" /><rect
       x="6.2912123"
       y="290.4443"
       width="17.825101"
       height="15.728031"
       id="rect8" /><rect
       x="26.213384"
       y="304.07526"
       width="79.950823"
       height="15.859097"
       id="rect7" /><rect
       x="23.592046"
       y="305.1238"
       width="106.42634"
       height="23.067778"
       id="rect6" /><linearGradient
       id="linearGradient3"
       inkscape:collect="always"><stop
         style="stop-color:#082468;stop-opacity:1;"
         offset="0"
         id="stop3" /><stop
         style="stop-color:#3d5aa6;stop-opacity:0.82745098;"
         offset="0.5"
         id="stop5" /><stop
         style="stop-color:#082468;stop-opacity:0.84162068;"
         offset="1"
         id="stop4" /></linearGradient><linearGradient
       inkscape:collect="always"
       xlink:href="#linearGradient3"
       id="linearGradient4"
       x1="-1.5697931"
       y1="53.045689"
       x2="37.824558"
       y2="0.47291896"
       gradientUnits="userSpaceOnUse" /></defs><g
     inkscape:label="Layer 1"
     inkscape:groupmode="layer"
     id="layer1"><rect
       style="opacity:1;mix-blend-mode:darken;fill:url(#linearGradient4);fill-opacity:1;stroke-width:0.264583"
       id="rect2"
       width="39.901917"
       height="90.098083"
       x="0.13871253"
       y="-0.13871248"
       inkscape:label="background" /><text
       xml:space="preserve"
       transform="scale(0.26458333)"
       id="text10"
       style="text-align:start;writing-mode:lr-tb;direction:ltr;white-space:pre;shape-inside:url(#rect11);display:inline;opacity:1;fill:#f58118;fill-opacity:1"
       inkscape:label="branding"><tspan
         x="16.310547"
         y="323.80131"
         id="tspan1">JavaSetupTool</tspan></text></g><g
     inkscape:groupmode="layer"
     id="layer2"
     inkscape:label="Layer 2"><g
       style="fill:#2e2e2e;fill-opacity:1"
       id="g13"
       transform="matrix(4.6041517,0,0,4.6041517,-78.60369,-64.747837)"><g
         id="g2"
         style="fill:#2e2e2e;fill-opacity:1">
	<g
   id="g1"
   style="fill:#2e2e2e;fill-opacity:1">
		<path
   d="m 24.242552,20.556801 h -0.164829 c -0.03064,-0.116172 -0.07846,-0.224976 -0.140818,-0.324505 l 0.118498,-0.115513 c 0.03199,-0.03111 0.04958,-0.07262 0.04958,-0.116698 0,-0.04401 -0.01772,-0.08558 -0.04958,-0.116632 l -0.197497,-0.191887 c -0.06405,-0.06236 -0.175989,-0.0623 -0.239769,-6.6e-5 l -0.123504,0.119395 c -0.101183,-0.05736 -0.209671,-0.101568 -0.329184,-0.129986 v -0.17156 c 0,-0.09098 -0.07474,-0.165772 -0.168278,-0.165772 H 22.71797 c -0.09354,0 -0.167128,0.0748 -0.167128,0.165772 v 0.171494 c -0.119445,0.02835 -0.22861,0.07262 -0.329928,0.130052 L 22.097478,19.6915 c -0.06398,-0.06236 -0.175989,-0.0623 -0.240175,-6.6e-5 l -0.197362,0.191887 c -0.03165,0.03072 -0.04971,0.07322 -0.04971,0.116632 0,0.04401 0.01752,0.08545 0.04958,0.116567 l 0.118498,0.115776 c -0.06229,0.09953 -0.110179,0.208333 -0.14075,0.324505 h -0.164897 c -0.09361,0 -0.169157,0.07315 -0.169157,0.163929 v 0.271352 c 0,0.09104 0.07555,0.162548 0.169157,0.162548 h 0.164897 c 0.03057,0.116172 0.07839,0.225634 0.140615,0.325162 l -0.118498,0.115975 c -0.03206,0.03111 -0.04964,0.07275 -0.04964,0.116829 0,0.04407 0.01765,0.08571 0.04964,0.116829 l 0.197496,0.192019 c 0.03206,0.03111 0.0746,0.04822 0.119851,0.04822 0.04525,0 0.08786,-0.01717 0.119919,-0.04822 l 0.123977,-0.119461 c 0.101318,0.05743 0.210483,0.101634 0.329928,0.130118 v 0.171297 c 0,0.09098 0.07359,0.164324 0.167128,0.164324 h 0.279201 c 0.09354,0 0.168278,-0.07335 0.168278,-0.164324 v -0.171363 c 0.119513,-0.02842 0.228001,-0.07262 0.32932,-0.130052 l 0.122894,0.119198 c 0.03206,0.03125 0.07467,0.04835 0.120054,0.04835 0.04532,0 0.08799,-0.01717 0.119986,-0.04822 L 24.0552,21.829424 c 0.03199,-0.03105 0.04951,-0.07256 0.04965,-0.116566 0,-0.04407 -0.01772,-0.08545 -0.04965,-0.116632 l -0.118363,-0.116434 c 0.06222,-0.09959 0.110044,-0.209122 0.140683,-0.325162 h 0.164896 c 0.09354,0 0.170443,-0.0715 0.170443,-0.162548 V 20.72073 c 6.8e-5,-0.09078 -0.07677,-0.163929 -0.170307,-0.163929 z m -1.385049,0.816161 c -0.29611,0 -0.536218,-0.231357 -0.536218,-0.516523 0,-0.285364 0.240108,-0.516391 0.536218,-0.516391 0.296178,0 0.536421,0.231027 0.536421,0.516391 -6.8e-5,0.285232 -0.240243,0.516523 -0.536421,0.516523 z"
   id="path1"
   style="stroke-width:0.0667027;fill:#2e2e2e;fill-opacity:1" />
	</g>
</g></g><g
       style="fill:#e7e7e7;fill-opacity:0.53148603"
       id="g14"
       transform="matrix(1.5414681,0,0,1.6319324,1.1312582,22.624608)"><path
         d="m 18.910013,9 v 8.8 c 0,1.1201 0,1.6802 -0.218,2.108 -0.1917,0.3763 -0.4977,0.6823 -0.874,0.874 C 17.390213,21 16.830113,21 15.710013,21 H 8.1100127 c -1.12011,0 -1.68016,0 -2.10798,-0.218 -0.37633,-0.1917 -0.68229,-0.4977 -0.87403,-0.874 -0.21799,-0.4278 -0.21799,-0.9879 -0.21799,-2.108 V 6.2 c 0,-1.12011 0,-1.68016 0.21799,-2.10798 0.19174,-0.37633 0.4977,-0.68229 0.87403,-0.87403 C 6.4298527,3 6.9899127,3 8.1100127,3 h 4.8000003 m 6,6 -6,-6 m 6,6 h -5 c -0.5523,0 -1,-0.44772 -1,-1 V 3"
         stroke="#000000"
         stroke-width="2"
         stroke-linecap="round"
         stroke-linejoin="round"
         id="path1-6"
         style="fill:#e7e7e7;fill-opacity:0.53148603" /></g><rect
       style="opacity:1;fill:#d4d4d4;fill-opacity:1;stroke-width:0.264583"
       id="rect15"
       width="12.622836"
       height="0.83227491"
       x="12.900262"
       y="42.446026" /><rect
       style="fill:#d4d4d4;fill-opacity:1;stroke-width:0.264583"
       id="rect15-7"
       width="12.622836"
       height="0.83227491"
       x="12.899131"
       y="46.45689" /><rect
       style="fill:#d4d4d4;fill-opacity:1;stroke-width:0.264583"
       id="rect15-0"
       width="12.622836"
       height="0.83227491"
       x="13.013404"
       y="50.638149" /></g></svg>
